<?xml version="1.0" standalone="no"?>
<!DOCTYPE svg PUBLIC "-//W3C//DTD SVG 20010904//EN"
 "http://www.w3.org/TR/2001/REC-SVG-20010904/DTD/svg10.dtd">
<svg version="1.0" xmlns="http://www.w3.org/2000/svg"
 width="909.000000pt" height="909.000000pt" viewBox="0 0 909.000000 909.000000"
 preserveAspectRatio="xMidYMid meet">

<g transform="translate(0.000000,909.000000) scale(0.100000,-0.100000)"
fill="#000000" stroke="none">
<path d="M1912 7725 c0 -16 2 -22 5 -12 2 9 2 23 0 30 -3 6 -5 -1 -5 -18z"/>
<path d="M1902 7540 c0 -19 2 -27 5 -17 2 9 2 25 0 35 -3 9 -5 1 -5 -18z"/>
<path d="M7181 6334 c0 -11 3 -14 6 -6 3 7 2 16 -1 19 -3 4 -6 -2 -5 -13z"/>
<path d="M7161 5964 c0 -11 3 -14 6 -6 3 7 2 16 -1 19 -3 4 -6 -2 -5 -13z"/>
<path d="M1791 5674 c0 -11 3 -14 6 -6 3 7 2 16 -1 19 -3 4 -6 -2 -5 -13z"/>
<path d="M3640 5120 c0 -6 -11 -8 -25 -4 -24 6 -25 4 -27 -42 -2 -52 -1 -59 1
-169 l2 -70 24 110 c12 61 28 123 34 138 14 35 14 47 1 47 -5 0 -10 -5 -10
-10z m-18 -42 c-7 -7 -12 -8 -12 -2 0 6 3 14 7 17 3 4 9 5 12 2 2 -3 -1 -11
-7 -17z"/>
<path d="M4198 5113 c7 -3 16 -2 19 1 4 3 -2 6 -13 5 -11 0 -14 -3 -6 -6z"/>
<path d="M3960 5099 c0 -15 52 -88 92 -128 63 -64 146 -121 258 -176 114 -56
165 -70 140 -40 -7 9 -15 13 -18 11 -7 -8 -102 43 -102 54 0 6 -7 10 -16 10
-8 0 -13 4 -9 10 3 5 12 7 19 4 8 -3 17 0 22 7 4 8 3 10 -4 5 -6 -4 -20 2 -30
12 -15 15 -16 20 -5 31 14 13 1 51 -18 51 -6 0 -7 5 -3 12 4 7 3 8 -4 4 -13
-8 5 -46 21 -46 5 0 2 -7 -7 -15 -8 -8 -23 -12 -33 -9 -10 3 -3 -3 15 -15 37
-24 38 -27 16 -35 -8 -3 -12 -2 -9 4 3 6 2 10 -4 10 -20 0 -72 53 -66 67 3 10
1 13 -9 10 -16 -6 -47 24 -70 71 -9 17 -21 32 -27 32 -6 0 -9 6 -6 14 9 22
-39 49 -73 41 -16 -3 -31 -2 -35 4 -8 14 -35 14 -35 0z m74 -31 c23 -25 57
-78 49 -78 -9 1 -77 90 -68 90 4 0 12 -6 19 -12z"/>
<path d="M3670 5081 c0 -5 5 -13 10 -16 6 -3 10 -2 10 4 0 5 -4 13 -10 16 -5
3 -10 2 -10 -4z"/>
<path d="M4221 5068 c23 -44 184 -195 259 -243 113 -72 198 -117 212 -112 8 4
7 6 -4 6 -24 1 -30 17 -13 35 9 9 11 17 5 21 -5 3 -10 1 -10 -4 0 -6 -5 -11
-11 -11 -6 0 -8 8 -5 18 4 12 -1 26 -14 37 -11 10 -20 13 -20 8 0 -6 7 -14 16
-17 10 -4 14 -12 10 -22 -4 -9 -1 -24 6 -32 11 -13 10 -15 -5 -9 -10 4 -21 7
-23 7 -3 0 -2 5 2 11 4 7 1 10 -7 7 -8 -3 -33 10 -56 29 -24 19 -43 31 -43 27
0 -4 -13 5 -30 21 -27 26 -28 29 -12 41 9 7 14 16 10 20 -4 4 -14 1 -22 -5 -8
-7 -20 -9 -27 -5 -8 5 -7 9 5 16 18 10 22 28 5 28 -5 0 -8 -4 -5 -9 3 -5 -3
-11 -15 -14 -18 -5 -20 -2 -14 25 5 20 4 28 -3 24 -6 -3 -13 -2 -17 4 -8 12
-25 13 -25 1 0 -5 10 -12 23 -16 15 -4 18 -8 8 -12 -7 -3 -25 6 -39 21 l-27
26 25 0 c19 0 21 3 11 9 -8 5 -20 7 -28 4 -7 -3 -13 2 -13 12 0 9 -3 14 -7 12
-5 -3 -19 10 -33 29 -18 24 -33 34 -53 34 -26 0 -27 -2 -16 -22z"/>
<path d="M4290 5076 c0 -2 7 -9 15 -16 9 -7 15 -8 15 -2 0 5 -7 12 -15 16 -8
3 -15 4 -15 2z"/>
<path d="M4526 5071 c-8 -12 9 -57 24 -66 6 -3 38 -48 72 -98 34 -51 96 -137
139 -192 112 -146 157 -221 181 -299 19 -63 22 -67 34 -51 8 10 14 27 14 38 0
10 3 16 8 14 12 -8 2 176 -13 236 -4 15 -2 41 4 59 9 27 9 30 -2 16 -11 -14
-16 -8 -37 45 -13 34 -23 66 -22 70 1 5 -2 6 -8 2 -5 -3 -10 1 -10 9 0 16 -37
83 -57 104 -7 7 -13 10 -13 5 0 -4 -12 6 -26 22 -14 17 -22 23 -18 15 4 -8 13
-22 20 -30 19 -23 53 -120 47 -136 -3 -8 2 -16 10 -20 10 -3 15 -18 14 -40 -1
-32 -17 -51 -17 -19 0 8 -5 15 -10 15 -6 0 -3 -14 6 -32 17 -32 17 -32 25 -9
5 12 7 27 3 32 -3 5 -3 9 1 9 8 0 26 -49 31 -85 13 -91 15 -129 5 -115 -5 8
-7 18 -5 22 3 4 0 8 -7 8 -6 0 -9 8 -6 20 3 12 1 18 -5 14 -6 -4 -8 2 -3 17 4
13 4 21 0 17 -9 -9 -42 41 -58 86 -12 35 -77 134 -104 158 -29 26 -49 8 -23
-22 11 -13 20 -32 19 -44 0 -16 -2 -18 -7 -5 -4 8 -45 66 -91 127 -78 105
-102 125 -115 103z m273 -314 c12 -21 21 -41 21 -45 -1 -10 -50 71 -50 82 0
13 5 7 29 -37z"/>
<path d="M3661 5040 c-1 -14 -4 -36 -6 -50 l-6 -25 11 25 c6 13 9 36 7 50 l-4
25 -2 -25z"/>
<path d="M4200 5057 c0 -4 6 -16 12 -27 11 -16 9 -22 -7 -35 -11 -9 -15 -14
-8 -11 13 7 43 -3 43 -14 0 -5 -12 -7 -27 -6 -20 3 -28 9 -27 23 0 12 -7 20
-18 20 -18 2 -18 1 -1 -28 10 -16 23 -27 30 -25 24 10 44 -5 38 -28 -4 -14 -3
-17 3 -8 5 8 16 10 28 6 14 -6 13 -2 -6 14 -15 13 -20 21 -11 22 11 0 11 3 1
15 -8 10 -9 15 -1 15 6 0 5 7 -4 18 -8 9 -21 26 -29 37 -9 11 -16 17 -16 12z"/>
<path d="M4424 5045 c8 -8 18 -15 22 -15 3 0 1 7 -6 15 -7 8 -17 15 -22 15 -5
0 -3 -7 6 -15z"/>
<path d="M4900 5044 c0 -4 14 -29 30 -56 17 -26 30 -59 30 -73 0 -13 10 -43
22 -67 12 -23 21 -54 20 -70 -1 -15 3 -28 8 -28 6 0 8 5 5 10 -3 6 -2 10 3 10
15 0 32 -48 49 -146 24 -134 9 -261 -47 -411 -40 -108 -70 -230 -70 -281 1
-41 15 -10 45 94 29 97 49 135 58 109 4 -8 1 -15 -5 -15 -6 0 -9 -3 -5 -6 16
-16 24 8 15 40 -9 29 -8 40 6 61 9 14 22 23 28 19 7 -4 8 -3 4 5 -5 7 -5 24
-1 39 l8 27 7 -25 c7 -21 8 -18 9 17 1 23 6 45 12 49 7 4 9 32 6 78 -4 54 -3
62 3 31 8 -36 8 -35 5 17 -3 48 -1 56 12 51 12 -5 14 0 8 25 -4 20 -3 32 4 32
7 0 10 -31 9 -89 -1 -50 1 -93 4 -96 13 -13 28 7 28 36 0 16 5 29 11 29 5 0 9
8 8 18 -1 9 1 25 6 35 4 9 3 23 -3 30 -16 21 -22 65 -12 91 8 21 6 30 -10 46
-21 21 -28 46 -10 35 13 -8 13 15 0 35 -8 12 -10 12 -10 -5 -1 -19 -1 -19 -11
-2 -6 9 -8 26 -4 36 3 11 1 22 -4 26 -7 4 -8 -1 -4 -11 4 -12 3 -15 -5 -10 -7
4 -12 16 -12 27 0 10 -4 19 -8 19 -5 0 -15 16 -22 35 -8 20 -19 34 -26 31 -7
-3 -24 12 -37 32 -48 70 -91 110 -124 117 -18 4 -33 3 -33 -1z m180 -193 c0
-7 7 -26 16 -42 27 -52 7 -44 -24 10 -16 28 -32 48 -36 43 -4 -4 -7 -2 -6 3 3
16 -12 55 -19 51 -4 -3 -8 7 -9 21 -2 22 3 20 38 -25 22 -27 40 -55 40 -61z
m60 -136 c7 -24 10 -51 7 -60 -4 -9 -1 -15 7 -15 13 0 14 -23 1 -52 -4 -10 -4
-26 0 -35 4 -13 3 -15 -4 -8 -6 6 -12 45 -15 86 -2 42 -9 86 -15 97 -13 25
-14 32 -2 32 4 0 14 -20 21 -45z m-13 -347 c-3 -7 -5 -2 -5 12 0 14 2 19 5 13
2 -7 2 -19 0 -25z"/>
<path d="M4430 5015 c0 -5 5 -17 10 -25 5 -8 10 -10 10 -5 0 6 -5 17 -10 25
-5 8 -10 11 -10 5z"/>
<path d="M4460 5010 c0 -5 5 -10 11 -10 5 0 7 5 4 10 -3 6 -8 10 -11 10 -2 0
-4 -4 -4 -10z"/>
<path d="M4390 5000 c0 -5 5 -10 10 -10 6 0 10 5 10 10 0 6 -4 10 -10 10 -5 0
-10 -4 -10 -10z"/>
<path d="M4522 4979 c-8 -12 -8 -19 -2 -19 5 0 10 6 10 13 0 9 3 8 9 -2 5 -7
11 -9 14 -5 3 5 -1 14 -7 20 -10 9 -16 7 -24 -7z"/>
<path d="M4475 4980 c-3 -5 -1 -10 4 -10 6 0 11 5 11 10 0 6 -2 10 -4 10 -3 0
-8 -4 -11 -10z"/>
<path d="M4558 4955 c-3 -4 -2 -21 3 -38 6 -21 5 -33 -2 -38 -6 -4 -9 -13 -7
-20 3 -10 8 -7 16 8 12 22 3 101 -10 88z"/>
<path d="M4517 4936 c-4 -10 -1 -13 8 -9 8 3 12 9 9 14 -7 12 -11 11 -17 -5z"/>
<path d="M4740 4946 c0 -2 8 -10 18 -17 15 -13 16 -12 3 4 -13 16 -21 21 -21
13z"/>
<path d="M4480 4930 c0 -5 5 -10 10 -10 6 0 10 5 10 10 0 6 -4 10 -10 10 -5 0
-10 -4 -10 -10z"/>
<path d="M5527 4914 c-4 -4 -7 -32 -7 -61 0 -92 -36 -274 -51 -259 -2 2 -5
-10 -6 -27 -1 -18 -16 -63 -35 -102 -49 -102 -51 -105 -58 -75 -4 15 -1 30 7
38 7 7 13 19 13 25 0 8 -4 7 -9 -2 -6 -9 -10 22 -10 86 -1 106 -12 167 -24
128 -3 -11 -9 -54 -12 -95 -4 -41 -11 -83 -16 -93 -6 -9 -9 -23 -8 -30 1 -6
-1 -19 -4 -27 -3 -8 -11 -35 -17 -59 -11 -43 -55 -123 -71 -129 -4 -2 -6 -9
-3 -15 8 -22 -125 -219 -143 -212 -7 2 -12 -1 -10 -7 1 -7 -7 -14 -18 -16 -17
-4 -18 -2 -6 12 9 10 10 16 2 16 -6 0 -11 -4 -11 -10 0 -5 -8 -10 -17 -10 -17
-1 -17 -1 0 -11 27 -16 65 -3 124 42 29 21 54 39 57 39 2 0 2 -9 -1 -20 -3
-12 0 -20 6 -20 7 0 10 4 6 9 -3 5 -1 12 5 16 5 3 10 1 10 -4 0 -6 5 -11 11
-11 8 0 8 4 0 14 -10 11 -10 20 -1 37 10 17 14 19 21 8 7 -11 9 -9 9 7 0 25
24 49 39 39 7 -4 8 1 4 11 -4 12 -3 15 5 10 8 -5 10 -2 6 8 -3 9 -1 16 5 16
14 0 73 126 109 235 17 50 56 152 87 229 31 76 57 150 57 165 0 32 -35 115
-45 105z m-163 -583 c-46 -71 -59 -82 -29 -25 8 16 15 37 15 46 0 12 5 15 15
11 14 -5 14 -8 -1 -32z"/>
<path d="M4780 4899 c0 -9 9 -24 20 -34 10 -9 19 -20 18 -24 0 -3 0 -13 1 -21
1 -13 2 -13 11 0 8 12 10 10 10 -8 0 -13 4 -20 10 -17 11 7 0 33 -26 63 -7 9
-20 26 -28 37 -12 16 -15 17 -16 4z"/>
<path d="M5200 4890 c0 -5 5 -10 10 -10 6 0 10 5 10 10 0 6 -4 10 -10 10 -5 0
-10 -4 -10 -10z"/>
<path d="M4586 4854 c-9 -23 -7 -34 4 -34 6 0 9 6 8 13 -2 6 2 11 9 10 7 -2
10 4 7 12 -8 20 -20 19 -28 -1z"/>
<path d="M4385 4840 c5 -9 2 -10 -14 -5 -12 4 -21 2 -21 -4 0 -6 13 -11 28
-11 15 0 33 -5 40 -12 6 -6 14 -9 17 -7 2 3 -9 16 -27 29 -17 12 -27 17 -23
10z"/>
<path d="M4545 4830 c-3 -5 -2 -10 4 -10 5 0 13 5 16 10 3 6 2 10 -4 10 -5 0
-13 -4 -16 -10z"/>
<path d="M4965 4800 c0 -21 2 -34 6 -28 4 7 9 5 12 -3 4 -8 4 0 0 16 -10 50
-18 57 -18 15z"/>
<path d="M5260 4835 c0 -5 5 -17 10 -25 5 -8 10 -10 10 -5 0 6 -5 17 -10 25
-5 8 -10 11 -10 5z"/>
<path d="M4600 4789 c0 -5 5 -7 10 -4 6 3 10 8 10 11 0 2 -4 4 -10 4 -5 0 -10
-5 -10 -11z"/>
<path d="M5240 4793 c0 -4 5 -15 10 -23 8 -13 10 -13 10 2 0 9 -4 20 -10 23
-5 3 -10 3 -10 -2z"/>
<path d="M5351 4784 c0 -11 3 -14 6 -6 3 7 2 16 -1 19 -3 4 -6 -2 -5 -13z"/>
<path d="M4450 4775 c7 -9 15 -13 17 -11 7 7 -7 26 -19 26 -6 0 -6 -6 2 -15z"/>
<path d="M5280 4771 c0 -6 4 -13 10 -16 6 -3 7 1 4 9 -7 18 -14 21 -14 7z"/>
<path d="M5410 4772 c0 -5 7 -17 15 -28 15 -19 20 -8 9 20 -6 17 -24 22 -24 8z"/>
<path d="M4700 4730 c11 -11 20 -24 20 -29 0 -5 7 -12 15 -15 10 -3 6 7 -11
29 -14 19 -30 35 -35 35 -5 0 0 -9 11 -20z"/>
<path d="M4520 4730 c-25 -8 -24 -8 5 -9 17 -1 41 -4 55 -7 23 -5 23 -5 -4 10
-15 9 -29 16 -30 15 0 -1 -12 -5 -26 -9z"/>
<path d="M5416 4704 c-3 -9 -2 -23 4 -32 7 -14 9 -10 10 16 0 35 -5 41 -14 16z"/>
<path d="M4900 4690 c0 -5 5 -10 10 -10 6 0 10 5 10 10 0 6 -4 10 -10 10 -5 0
-10 -4 -10 -10z"/>
<path d="M5386 4683 c-4 -9 -2 -21 4 -27 7 -7 10 -2 10 17 0 31 -5 34 -14 10z"/>
<path d="M5446 4670 c8 -43 14 -51 14 -19 0 13 -5 31 -10 39 -7 11 -8 5 -4
-20z"/>
<path d="M5317 4657 c-11 -29 -9 -43 4 -30 6 6 9 19 7 29 -3 18 -4 18 -11 1z"/>
<path d="M5421 4640 c0 -8 4 -24 9 -35 l9 -20 0 20 c0 11 -4 27 -9 35 -9 13
-10 13 -9 0z"/>
<path d="M5032 4595 c0 -16 2 -22 5 -12 2 9 2 23 0 30 -3 6 -5 -1 -5 -18z"/>
<path d="M5256 4585 c4 -8 8 -15 10 -15 2 0 4 7 4 15 0 8 -4 15 -10 15 -5 0
-7 -7 -4 -15z"/>
<path d="M5381 4580 c0 -8 3 -21 8 -29 7 -11 10 -9 16 8 4 13 4 25 1 28 -3 4
-6 -2 -7 -13 0 -18 -1 -18 -9 1 -6 13 -9 15 -9 5z"/>
<path d="M5311 4564 c0 -11 3 -14 6 -6 3 7 2 16 -1 19 -3 4 -6 -2 -5 -13z"/>
<path d="M5425 4551 c-3 -5 -1 -12 5 -16 5 -3 10 1 10 9 0 18 -6 21 -15 7z"/>
<path d="M5027 4531 c-4 -17 -3 -21 5 -13 5 5 8 16 6 23 -3 8 -7 3 -11 -10z"/>
<path d="M3680 4497 c-25 -12 -46 -28 -48 -36 -2 -9 3 -11 15 -6 10 4 45 9 78
12 58 5 62 3 102 -31 23 -20 44 -33 47 -28 8 13 -31 90 -52 101 -32 17 -92 12
-142 -12z"/>
<path d="M5243 4443 c-1 -37 1 -42 7 -23 11 34 12 70 2 70 -4 0 -8 -21 -9 -47z"/>
<path d="M5401 4474 c0 -11 3 -14 6 -6 3 7 2 16 -1 19 -3 4 -6 -2 -5 -13z"/>
<path d="M5280 4455 c0 -8 5 -15 10 -15 6 0 10 7 10 15 0 8 -4 15 -10 15 -5 0
-10 -7 -10 -15z"/>
<path d="M5011 4444 c0 -11 3 -14 6 -6 3 7 2 16 -1 19 -3 4 -6 -2 -5 -13z"/>
<path d="M5162 4415 c0 -16 2 -22 5 -12 2 9 2 23 0 30 -3 6 -5 -1 -5 -18z"/>
<path d="M5180 4365 c0 -8 4 -15 10 -15 5 0 7 7 4 15 -4 8 -8 15 -10 15 -2 0
-4 -7 -4 -15z"/>
<path d="M5240 4355 c0 -5 5 -17 10 -25 5 -8 10 -10 10 -5 0 6 -5 17 -10 25
-5 8 -10 11 -10 5z"/>
<path d="M5142 4295 c0 -16 2 -22 5 -12 2 9 2 23 0 30 -3 6 -5 -1 -5 -18z"/>
<path d="M4404 4251 c-53 -32 -51 -41 11 -41 74 0 109 -16 183 -84 42 -40 60
-51 57 -38 -6 33 -69 115 -114 150 -49 37 -91 41 -137 13z"/>
<path d="M5160 4250 c0 -5 5 -10 10 -10 6 0 10 5 10 10 0 6 -4 10 -10 10 -5 0
-10 -4 -10 -10z"/>
<path d="M5127 4230 c3 -11 7 -20 9 -20 2 0 4 9 4 20 0 11 -4 20 -9 20 -5 0
-7 -9 -4 -20z"/>
<path d="M5180 4211 c0 -6 5 -13 10 -16 6 -3 10 1 10 9 0 9 -4 16 -10 16 -5 0
-10 -4 -10 -9z"/>
<path d="M5151 4184 c0 -11 3 -14 6 -6 3 7 2 16 -1 19 -3 4 -6 -2 -5 -13z"/>
<path d="M5153 4145 c-13 -15 -17 -25 -9 -25 7 0 18 11 24 25 14 31 13 31 -15
0z"/>
<path d="M3716 4112 c-4 -7 7 -38 71 -187 20 -45 27 -83 31 -150 5 -106 16
-125 75 -125 34 0 46 6 86 48 93 96 191 204 191 211 0 5 -38 11 -84 14 -145
10 -249 59 -312 147 -35 49 -48 58 -58 42z"/>
<path d="M5027 4093 c-3 -5 3 -19 14 -32 15 -18 19 -20 19 -6 0 19 -26 49 -33
38z"/>
<path d="M5092 4060 c-7 -11 -8 -20 -3 -20 9 0 24 30 18 36 -1 2 -8 -6 -15
-16z"/>
<path d="M5011 4029 c-15 -26 -11 -31 11 -15 9 7 13 17 9 24 -4 7 -11 5 -20
-9z"/>
<path d="M3149 1899 c0 -13 -3 -18 -6 -11 -2 6 -9 10 -14 6 -5 -3 -19 -7 -31
-9 -33 -7 -78 -26 -78 -35 0 -3 -6 -7 -12 -7 -29 0 -117 -46 -110 -57 10 -15
10 -56 0 -50 -4 3 -20 12 -36 20 l-27 15 33 -6 c31 -6 46 7 20 18 -18 6 -169
-54 -162 -64 3 -5 -3 -9 -13 -9 -10 0 -74 -24 -143 -54 l-125 -53 1 -44 c1
-81 4 -100 12 -95 5 3 6 -8 4 -24 -5 -34 17 -95 56 -157 26 -41 47 -58 36 -28
-4 8 -1 15 6 15 8 0 10 -9 6 -26 -6 -21 -4 -25 8 -21 11 4 13 1 9 -10 -4 -10
-2 -14 4 -10 6 4 13 3 15 -2 2 -5 271 -14 628 -20 344 -7 635 -14 648 -17 16
-3 22 0 22 13 0 38 -21 258 -25 262 -3 2 -57 -41 -122 -96 -136 -115 -168
-137 -183 -128 -6 3 -22 30 -36 58 -47 92 -109 181 -188 268 -42 46 -97 114
-122 150 -41 59 -47 75 -55 144 -8 78 -18 109 -20 64z m-79 -61 c0 -5 -4 -7
-9 -3 -6 3 -20 -5 -32 -17 -12 -13 -19 -18 -15 -11 4 8 -1 11 -14 10 -11 -1
-20 -4 -20 -7 0 -3 -12 -6 -27 -7 l-28 -2 25 10 c14 6 36 13 50 15 14 3 29 11
34 18 10 15 36 10 36 -6z m-210 -102 c0 -2 -7 -7 -16 -10 -8 -3 -12 -2 -9 4 6
10 25 14 25 6z m-30 -40 c0 -7 -9 -16 -20 -19 -25 -6 -26 1 -2 19 22 17 22 17
22 0z m-130 -6 c0 -5 -4 -10 -10 -10 -5 0 -10 5 -10 10 0 6 5 10 10 10 6 0 10
-4 10 -10z m210 0 c0 -5 -7 -10 -16 -10 -8 0 -12 5 -9 10 3 6 10 10 16 10 5 0
9 -4 9 -10z m-244 -17 c-1 -23 -28 -41 -34 -24 -3 8 -8 9 -15 2 -7 -5 -16 -10
-22 -11 -5 -1 -21 -6 -34 -11 -13 -5 -26 -7 -29 -5 -3 3 4 8 14 12 10 3 32 12
49 19 19 9 34 10 41 4 8 -6 13 -3 17 11 6 25 15 26 13 3z m59 -3 c-10 -11 -20
-18 -23 -16 -5 6 21 35 32 36 5 0 1 -9 -9 -20z m118 -27 c-7 -2 -19 -2 -25 0
-7 3 -2 5 12 5 14 0 19 -2 13 -5z m-370 -60 c-7 -3 -9 -11 -6 -20 4 -11 2 -14
-5 -9 -7 4 -12 16 -12 26 0 14 5 18 17 13 10 -4 12 -8 6 -10z m52 -1 c-3 -3
-11 0 -18 7 -9 10 -8 11 6 5 10 -3 15 -9 12 -12z m-18 -94 c-3 -8 -6 -5 -6 6
-1 11 2 17 5 13 3 -3 4 -12 1 -19z m-15 -60 c-8 -8 -9 -4 -5 13 4 13 8 18 11
10 2 -7 -1 -18 -6 -23z m95 10 c-3 -8 -6 -5 -6 6 -1 11 2 17 5 13 3 -3 4 -12
1 -19z m623 2 c0 -5 -4 -10 -10 -10 -5 0 -10 5 -10 10 0 6 5 10 10 10 6 0 10
-4 10 -10z m-540 -50 c0 -5 -2 -10 -4 -10 -3 0 -8 5 -11 10 -3 6 -1 10 4 10 6
0 11 -4 11 -10z m405 0 c-3 -5 -16 -10 -28 -9 -20 1 -20 2 3 9 14 4 26 8 28 9
2 1 0 -3 -3 -9z m-572 -30 c-3 -12 -8 -19 -11 -16 -5 6 5 36 12 36 2 0 2 -9
-1 -20z m707 16 c0 -3 -4 -8 -10 -11 -5 -3 -10 -1 -10 4 0 6 5 11 10 11 6 0
10 -2 10 -4z m-120 -27 c0 -5 -9 -9 -20 -9 -17 0 -19 2 -8 14 13 14 28 12 28
-5z m-420 -19 c0 -5 -5 -10 -11 -10 -5 0 -7 5 -4 10 3 6 8 10 11 10 2 0 4 -4
4 -10z m-95 -30 c3 -5 1 -10 -4 -10 -6 0 -11 5 -11 10 0 6 2 10 4 10 3 0 8 -4
11 -10z m92 -12 c-3 -8 -6 -5 -6 6 -1 11 2 17 5 13 3 -3 4 -12 1 -19z m-67
-36 c0 -15 -2 -15 -10 -2 -13 20 -13 33 0 25 6 -3 10 -14 10 -23z m30 -32 c0
-5 -4 -10 -10 -10 -5 0 -10 5 -10 10 0 6 5 10 10 10 6 0 10 -4 10 -10z"/>
<path d="M5070 1708 c-25 -5 -64 -18 -86 -28 -23 -11 -52 -22 -65 -25 -46 -13
-184 -92 -181 -104 1 -7 -2 -10 -7 -7 -5 4 -12 2 -15 -3 -4 -5 2 -12 13 -16
11 -3 22 -12 25 -20 7 -20 4 -19 -24 5 -30 26 -39 25 -49 -2 -11 -29 -6 -35
14 -18 9 7 18 10 22 7 3 -4 -6 -12 -20 -18 -31 -14 -42 -38 -22 -46 12 -4 13
-9 4 -19 -6 -8 -15 -12 -19 -9 -5 3 -11 1 -15 -5 -3 -5 -11 -10 -16 -10 -6 0
-7 5 -3 12 5 8 2 9 -10 5 -10 -4 -19 -7 -22 -7 -2 0 -1 -7 2 -15 4 -8 1 -15
-5 -15 -6 0 -11 6 -11 13 0 8 -4 7 -10 -3 -5 -8 -10 -10 -10 -5 1 18 25 42 38
38 6 -3 12 1 12 8 0 10 3 10 12 1 15 -15 32 -16 23 -2 -3 6 -2 10 3 10 5 0 8
11 7 25 -2 14 1 27 6 31 5 3 9 10 9 16 0 6 -11 -2 -24 -17 -14 -16 -22 -33
-19 -38 3 -6 1 -7 -5 -3 -6 3 -44 -23 -84 -59 -143 -129 -281 -203 -448 -242
l-75 -17 70 -14 c49 -9 114 -12 215 -9 l145 5 110 -95 c128 -111 260 -193 285
-178 5 3 2 26 -7 51 -20 59 -11 118 28 178 16 26 27 51 24 57 -3 5 0 6 8 4 7
-3 22 3 32 15 18 20 8 29 -11 10 -5 -5 -15 -6 -24 0 -8 5 -11 13 -6 17 5 4 11
2 13 -5 3 -6 9 -10 13 -7 5 3 6 13 3 23 -6 16 -6 16 11 0 9 -10 20 -18 22 -18
8 0 54 49 55 57 0 5 3 10 6 13 4 3 3 -1 -1 -7 -12 -22 10 -14 38 12 15 14 31
25 35 25 12 0 68 84 65 98 -1 7 0 8 3 2 9 -20 24 -10 18 13 -5 16 -4 18 4 7 8
-12 12 -12 29 3 10 9 34 20 53 24 l34 7 -30 7 -30 7 35 1 c32 2 33 3 12 12
-13 5 -28 7 -32 4 -5 -3 -12 0 -15 6 -4 6 -18 8 -34 4 -25 -6 -25 -6 -6 9 17
12 22 13 36 0 13 -12 18 -12 35 1 16 13 17 16 4 25 -10 6 -11 10 -3 10 7 0 10
7 7 15 -4 8 -10 15 -16 15 -5 0 -7 -4 -3 -9 3 -5 0 -13 -6 -17 -7 -4 -9 -3 -5
4 3 6 2 13 -3 16 -5 3 -7 16 -3 28 5 21 6 21 14 2 6 -13 7 -11 3 10 -4 16 -15
48 -26 70 -10 22 -19 46 -19 53 0 7 -8 13 -17 13 -15 0 -16 -2 -3 -10 8 -5 11
-10 7 -10 -5 0 -1 -10 7 -22 18 -26 20 -38 6 -38 -5 0 -10 8 -10 18 -1 23 -26
55 -39 48 -5 -4 -13 -1 -17 5 -4 7 -3 10 2 6 5 -3 20 1 34 9 25 13 24 13 -15
13 -22 -1 -60 -5 -85 -11z m3 -25 c-7 -2 -21 -2 -30 0 -10 3 -4 5 12 5 17 0
24 -2 18 -5z m34 -19 c-3 -3 -12 -4 -19 -1 -8 3 -5 6 6 6 11 1 17 -2 13 -5z
m-132 -22 c-3 -3 -11 0 -18 7 -9 10 -8 11 6 5 10 -3 15 -9 12 -12z m-65 -22
c0 -5 -8 -10 -17 -10 -15 0 -16 2 -3 10 19 12 20 12 20 0z m160 -10 c0 -5 -2
-10 -4 -10 -3 0 -8 5 -11 10 -3 6 -1 10 4 10 6 0 11 -4 11 -10z m42 -22 c-7
-7 -12 -8 -12 -2 0 14 12 26 19 19 2 -3 -1 -11 -7 -17z m63 13 c3 -5 1 -12 -5
-16 -5 -3 -10 1 -10 9 0 18 6 21 15 7z m-265 -9 c0 -4 -9 -13 -20 -20 -16 -10
-20 -10 -18 0 2 7 10 16 18 20 20 9 20 9 20 0z m-109 -11 c-7 -5 -10 -14 -7
-20 4 -6 2 -11 -3 -11 -12 0 -15 23 -4 33 3 4 11 7 17 7 6 0 5 -4 -3 -9z m36
-4 c0 -8 -6 -14 -13 -14 -7 0 -10 6 -7 14 3 7 8 13 12 13 4 0 8 -6 8 -13z
m147 -2 c11 -8 15 -15 10 -15 -6 0 -19 7 -30 15 -10 8 -14 14 -9 14 6 0 19 -6
29 -14z m-140 -81 c4 -10 1 -14 -6 -12 -15 5 -23 28 -10 28 5 0 13 -7 16 -16z
m271 -114 c-3 -5 -12 -7 -20 -3 -21 7 -19 13 6 13 11 0 18 -4 14 -10z m-475
-20 c0 -5 -4 -10 -10 -10 -5 0 -10 5 -10 10 0 6 5 10 10 10 6 0 10 -4 10 -10z
m-99 -33 c-10 -9 -11 -8 -5 6 3 10 9 15 12 12 3 -3 0 -11 -7 -18z m39 12 c0
-5 4 -8 8 -5 4 2 14 1 21 -4 9 -5 3 -7 -16 -7 -17 1 -30 7 -30 14 0 7 4 13 9
13 4 0 8 -5 8 -11z m90 1 c0 -5 -4 -10 -10 -10 -5 0 -10 5 -10 10 0 6 5 10 10
10 6 0 10 -4 10 -10z m350 -40 c0 -5 -2 -10 -4 -10 -3 0 -8 5 -11 10 -3 6 -1
10 4 10 6 0 11 -4 11 -10z m-453 -37 c-3 -10 -5 -4 -5 12 0 17 2 24 5 18 2 -7
2 -21 0 -30z m-40 -5 c-3 -8 -6 -5 -6 6 -1 11 2 17 5 13 3 -3 4 -12 1 -19z
m343 -22 c0 -11 -19 -15 -25 -6 -3 5 1 10 9 10 9 0 16 -2 16 -4z m-265 -16 c3
-5 1 -10 -4 -10 -6 0 -11 5 -11 10 0 6 2 10 4 10 3 0 8 -4 11 -10z m-45 -26
c0 -8 -4 -12 -10 -9 -5 3 -10 13 -10 21 0 8 5 12 10 9 6 -3 10 -13 10 -21z
m30 -45 c0 -14 -17 -10 -23 5 -4 10 -1 13 9 9 7 -3 14 -9 14 -14z m80 -24 c0
-8 -7 -15 -16 -15 -14 0 -14 3 -4 15 7 8 14 15 16 15 2 0 4 -7 4 -15z m100
-34 c0 -5 -7 -11 -14 -14 -10 -4 -13 -1 -9 9 6 15 23 19 23 5z m37 -83 c-3 -8
-6 -5 -6 6 -1 11 2 17 5 13 3 -3 4 -12 1 -19z m-30 -30 c-3 -8 -6 -5 -6 6 -1
11 2 17 5 13 3 -3 4 -12 1 -19z m20 -50 c-3 -7 -5 -2 -5 12 0 14 2 19 5 13 2
-7 2 -19 0 -25z m-17 -18 c8 -5 11 -10 5 -10 -5 0 -17 5 -25 10 -8 5 -10 10
-5 10 6 0 17 -5 25 -10z"/>
<path d="M4850 826 c0 -2 7 -7 16 -10 8 -3 12 -2 9 4 -6 10 -25 14 -25 6z"/>
</g>
</svg>
